<?xml version="1.0" encoding="UTF-8"?><svg id="Logo" xmlns="http://www.w3.org/2000/svg" viewBox="0 0 180 180"><defs><style>.cls-1{fill:#2e3192;}.cls-1,.cls-2{stroke-width:0px;}.cls-2{fill:#fff;}</style></defs><rect class="cls-2" x="0" width="180" height="180"/><path class="cls-1" d="M149.9,86.67c-22.36,21.84-34.92,43.17-59.9,43.33-10.24,0-20.47-3.91-28.28-11.72-5.15-5.15-8.6-11.37-10.35-17.94l-15.51,15.51c2.86,5.99,6.76,11.61,11.72,16.57,11.72,11.72,27.07,17.57,42.43,17.57s30.71-5.86,42.43-17.57c12.56-12.56,18.38-29.31,17.47-45.76ZM90,50c10.24,0,20.47,3.91,28.28,11.72,5.15,5.15,8.6,11.37,10.35,17.94l15.51-15.51c-2.86-5.99-6.76-11.61-11.72-16.57-11.72-11.72-27.07-17.57-42.43-17.57s-30.71,5.86-42.43,17.57c-12.56,12.56-18.38,29.31-17.47,45.76,22.36-21.84,34.92-43.17,59.9-43.33Z"/></svg>