<?xml version="1.0" encoding="UTF-8"?><svg id="Logo" xmlns="http://www.w3.org/2000/svg" viewBox="0 0 120 120"><defs><style>.cls-1{fill:#fff;stroke-width:0px;}</style></defs><path class="cls-1" d="M119.9,56.67c-22.36,21.84-34.92,43.17-59.9,43.33-10.24,0-20.47-3.91-28.28-11.72-5.15-5.15-8.6-11.37-10.35-17.94l-15.51,15.51c2.86,5.99,6.76,11.61,11.72,16.57,11.72,11.72,27.07,17.57,42.43,17.57s30.71-5.86,42.43-17.57c12.56-12.56,18.38-29.31,17.47-45.76ZM60,20c10.24,0,20.47,3.91,28.28,11.72,5.15,5.15,8.6,11.37,10.35,17.94l15.51-15.51c-2.86-5.99-6.76-11.61-11.72-16.57C90.71,5.86,75.36,0,60,0S29.29,5.86,17.57,17.57C5.01,30.14-.81,46.88.1,63.33,22.46,41.49,35.02,20.16,60,20Z"/></svg>