<?xml version="1.0" encoding="UTF-8"?><svg id="Logo" xmlns="http://www.w3.org/2000/svg" viewBox="0 0 444.99 120.05"><defs><style>.cls-1{fill:#fff;stroke-width:0px;}</style></defs><path class="cls-1" d="M399.99.02h-42.5v120h20v-30h22.5c24.81,0,45-20.19,45-45S424.8.02,399.99.02ZM399.99,70.02h-22.5V20.02h22.5c13.79,0,25,11.21,25,25s-11.21,25-25,25Z"/><path class="cls-1" d="M165.42,22.17l.18-.09c3-1.49,6.39-2.2,9.81-2.07h44.58S219.99.02,219.99.02h-44.01c-6.65-.23-13.27,1.19-19.17,4.1-12.01,5.7-19.38,17.67-19.22,31.27.11,9.67,4.03,18.43,10.65,24.63,8.95,8.68,20.77,9.41,29.09,9.97,4.65.32,8.67.59,12.02,2.08,5.04,2.23,8.08,7.02,8.15,12.81.07,5.79-2.86,10.65-7.83,12.99l-.18.09c-3,1.49-6.39,2.2-9.81,2.07h-44.68s0,19.99,0,19.99h44.1c6.65.23,13.27-1.19,19.17-4.1,12.01-5.7,19.38-17.67,19.22-31.27-.11-9.67-4.03-18.43-10.65-24.63-8.95-8.68-20.77-9.41-29.09-9.97-4.65-.32-8.67-.59-12.02-2.08-5.04-2.23-8.08-7.02-8.15-12.81-.07-5.79,2.86-10.65,7.83-12.99Z"/><path class="cls-1" d="M119.89,56.69c-22.36,21.84-34.92,43.17-59.9,43.33-10.24,0-20.47-3.91-28.28-11.72-5.15-5.15-8.6-11.37-10.35-17.94l-15.51,15.51c2.86,5.99,6.76,11.61,11.72,16.57,11.72,11.72,27.07,17.57,42.43,17.57s30.71-5.86,42.43-17.57c12.56-12.56,18.38-29.31,17.47-45.76ZM59.99,20.02c10.24,0,20.47,3.91,28.28,11.72,5.15,5.15,8.6,11.37,10.35,17.94l15.51-15.51c-2.86-5.99-6.76-11.61-11.72-16.57C90.7,5.88,75.35.02,59.99.02S29.28,5.88,17.56,17.6C5,30.16-.82,46.91.09,63.35,22.45,41.51,35.01,20.18,59.99,20.02Z"/><path class="cls-1" d="M337.49,102.16v-27.13c-13.18,14.08-24.75,24.88-42.5,25-22.06,0-40-17.94-40-40s17.94-40,40-40c11.03,0,21.03,4.49,28.27,11.73l14.23-14.14C326.63,6.75,311.53.02,294.99.02c-33.08,0-60,26.92-60,60s26.92,60,60,60c14.14,0,28.35-4.98,39.66-14.91,1.13-1.05,2.14-2.14,2.84-2.96Z"/></svg>